<svg width="200" height="200" viewBox="0 0 200 200" xmlns="http://www.w3.org/2000/svg">
  <defs>
    <linearGradient id="goldGrad" x1="0%" y1="0%" x2="100%" y2="100%">
      <stop offset="0%" style="stop-color:#FFD700;stop-opacity:1" />
      <stop offset="50%" style="stop-color:#FDB931;stop-opacity:1" />
      <stop offset="100%" style="stop-color:#D4AF37;stop-opacity:1" />
    </linearGradient>
  </defs>
  <!-- Detailed Helmet -->
  <path d="M50 100 Q50 40 100 40 Q150 40 150 100 L150 160 L120 160 L120 120 L110 120 L110 150 L90 150 L90 120 L80 120 L80 160 L50 160 Z" fill="#1A1A1A" stroke="url(#goldGrad)" stroke-width="2"/>
  <path d="M100 40 L100 80" stroke="url(#goldGrad)" stroke-width="4" stroke-linecap="round"/>
  
  <!-- Icon Plume -->
  <path d="M60 45 Q100 0 140 45" fill="none" stroke="url(#goldGrad)" stroke-width="15" stroke-linecap="round" opacity="0.3"/>
  <!-- Backpack Silhouette -->
  <path d="M92 15 Q92 10 100 10 Q108 10 108 15 L110 30 Q110 35 100 35 Q90 35 90 30 Z" fill="url(#goldGrad)"/>
  <!-- Bottle Silhouette -->
  <path d="M72 25 L78 25 L78 28 L80 28 L80 45 L70 45 L70 28 L72 28 Z" fill="url(#goldGrad)"/>
  <!-- Phone Silhouette -->
  <rect x="120" y="20" width="12" height="22" rx="2" fill="url(#goldGrad)"/>
</svg>